<svg id="visual" viewBox="0 0 900 600" width="900" height="600" xmlns="http://www.w3.org/2000/svg" xmlns:xlink="http://www.w3.org/1999/xlink" version="1.1"><rect x="0" y="0" width="900" height="600" fill="#333333"></rect><path d="M0 409L129 431L257 399L386 456L514 424L643 403L771 425L900 434L900 601L771 601L643 601L514 601L386 601L257 601L129 601L0 601Z" fill="#f5730a"></path><path d="M0 459L129 429L257 474L386 484L514 468L643 485L771 446L900 428L900 601L771 601L643 601L514 601L386 601L257 601L129 601L0 601Z" fill="#e5650a"></path><path d="M0 465L129 470L257 474L386 469L514 474L643 464L771 486L900 477L900 601L771 601L643 601L514 601L386 601L257 601L129 601L0 601Z" fill="#d65809"></path><path d="M0 508L129 509L257 472L386 518L514 507L643 509L771 503L900 470L900 601L771 601L643 601L514 601L386 601L257 601L129 601L0 601Z" fill="#c64b08"></path><path d="M0 533L129 530L257 500L386 500L514 500L643 524L771 531L900 521L900 601L771 601L643 601L514 601L386 601L257 601L129 601L0 601Z" fill="#b63d06"></path><path d="M0 530L129 524L257 521L386 532L514 516L643 538L771 515L900 514L900 601L771 601L643 601L514 601L386 601L257 601L129 601L0 601Z" fill="#a63005"></path><path d="M0 562L129 568L257 555L386 541L514 551L643 545L771 549L900 564L900 601L771 601L643 601L514 601L386 601L257 601L129 601L0 601Z" fill="#972303"></path><path d="M0 572L129 585L257 568L386 569L514 573L643 572L771 586L900 568L900 601L771 601L643 601L514 601L386 601L257 601L129 601L0 601Z" fill="#871400"></path></svg>