<svg xmlns="http://www.w3.org/2000/svg" version="1.1" enable-background="new 0 0 288 288" viewBox="0 0 288 288" x="0px" y="0px" width="288px" height="288px"> <g><g id="letter_group" transform="scale(1.9999987199999998)"><g><g><path d="M24.98-42.48L33.77-42.48C34.54-42.48 35.08-42.65 35.39-42.98C35.70-43.32 35.86-43.87 35.86-44.64C35.86-44.83 35.83-45.77 35.78-47.45C35.78-48.60 35.76-49.22 35.71-49.32C35.66-50.33 35.16-50.86 34.20-50.90L33.55-50.90L9.07-50.90L5.83-50.90C4.73-50.86 4.15-50.30 4.10-49.25C4.10-47.76 4.13-45.98 4.18-43.92C4.22-43.06 4.70-42.60 5.62-42.55C5.76-42.50 6.05-42.48 6.48-42.48L10.08-42.48L14.47-42.48C14.52-42.48 14.86-42.46 15.48-42.41L15.48-41.40L15.62-2.38C15.62-1.94 15.65-1.63 15.70-1.44C15.84-0.53 16.34-0.05 17.21 0C19.08 0.05 20.74 0.05 22.18 0C23.28 0 23.86-0.60 23.90-1.80L23.90-3.17L23.90-22.21L23.90-41.26L23.90-42.48ZM49.03-32.83L49.03-33.77L49.03-48.46C49.03-49.18 48.88-49.69 48.56-50.00C48.25-50.32 47.74-50.47 47.02-50.47C46.78-50.47 46.02-50.46 44.75-50.44C43.48-50.41 42.72-50.42 42.48-50.47C41.23-50.47 40.61-49.82 40.61-48.53L40.61-45.58C40.61-43.32 40.62-40.92 40.64-38.38C40.67-35.83 40.68-33.44 40.68-31.21C40.68-28.98 40.69-26.58 40.72-24.01C40.74-21.44 40.75-19.04 40.75-16.81L40.75-9.61C40.75-7.04 40.78-4.63 40.82-2.38L40.82-1.44C40.87-0.82 41.03-0.37 41.29-0.11C41.56 0.16 42.02 0.29 42.70 0.29L46.44 0.29L47.59 0.29C47.88 0.24 48.13 0.16 48.35 0.04C48.56-0.08 48.72-0.25 48.82-0.47C48.91-0.68 48.98-0.94 49.03-1.22C49.08-1.46 49.08-1.97 49.03-2.74L49.03-18.58L49.03-18.86L49.03-19.19L49.03-19.51L49.10-19.51L49.25-19.51C49.58-19.08 49.75-18.84 49.75-18.79C56.62-9.24 60.86-3.31 62.50-1.01C63.02-0.34 63.70 0 64.51 0C64.66 0 66.55-0.02 70.20-0.07L70.85-0.07C71.18-0.17 71.41-0.34 71.53-0.58C71.65-0.82 71.64-1.08 71.50-1.37C71.45-1.56 71.26-1.90 70.92-2.38C70.68-2.71 65.59-10.37 55.66-25.34C55.61-25.39 55.44-25.66 55.15-26.14C55.54-26.71 56.30-27.83 57.46-29.48C58.61-31.14 59.50-32.42 60.12-33.34C64.25-39.24 67.90-44.45 71.06-48.96C71.45-49.54 71.54-49.99 71.35-50.33C71.16-50.66 70.75-50.86 70.13-50.90L69.77-50.90C65.98-50.90 63.86-50.93 63.43-50.98C62.57-50.98 61.87-50.59 61.34-49.82C59.81-47.66 55.94-42.22 49.75-33.48C49.70-33.38 49.66-33.30 49.61-33.23C49.56-33.16 49.49-33.07 49.39-32.98C49.30-32.88 49.25-32.78 49.25-32.69C49.15-32.74 49.08-32.78 49.03-32.83Z" fill="#ffffff" transform="translate(33.500060480038705 94.09996486397752)"/></g></g></g><path d="M282.4,133c-0.4-1.2-0.9-2.4-1.4-3.6c-0.9-2.4-2-4.7-3-7.1c-0.5-1.2-1-2.3-1.6-3.5c-0.3-0.7-0.6-1.4-1-2 c0-0.1-0.1-0.2-0.2-0.2c-0.1-0.2-0.3-0.4-0.5-0.5c-0.1-0.1-0.3-0.2-0.4-0.2c-0.2,0-0.3-0.1-0.5,0l0,0c-0.4,0-0.7,0.2-0.9,0.4 c-0.2,0.2-0.4,0.5-0.5,0.8c-0.1,0.3-0.2,0.5-0.3,0.8c-0.1,0.4-0.2,0.8-0.4,1.2c-1.1-10.9-3.6-22.3-8.2-34 c-12.9-32.8-38.8-58.3-72.9-71.7C155-0.6,115.2,0.7,81.4,16.9C43.6,35,17.7,62.7,6.6,96.9c-10.3,31.8-7,68.1,9.3,102.2 c16.2,33.7,49.4,60.1,88.8,70.5c2,0.5,4,1,6,1.4c0,0.2,0,0.4,0,0.5c0,0.5,0.1,1,0.2,1.5c0.2,1.2,0.7,2.3,1.3,3.3 c0.2,0.3,0.4,0.5,0.6,0.7c0.4,0.4,0.9,0.7,1.5,0.7c0.3,0,0.6,0,1,0c0.4-0.1,0.7-0.1,1.1-0.2c0.8-0.2,1.6-0.3,2.4-0.5 c1.5-0.3,3-0.6,4.5-0.9c1.8-0.3,3.5-0.7,5.3-1.1c1.6-0.4,3.2-0.8,4.8-1.2c2,0.1,3.9,0.2,5.8,0.2c0.5,1.1,0.8,2.2,0.9,3.3 c0,0.4,0.1,0.8,0.1,1.2c0,0.8-0.1,1.6-0.1,2.4c0,0.4,0,0.9,0.1,1.3c0,0.1,0.1,0.2,0.1,0.3c0.1,0.1,0.1,0.2,0.2,0.3 c0.1,0.2,0.3,0.3,0.5,0.3c0.1,0,0.2,0.1,0.3,0.1c0.3,0,0.6,0,0.9-0.2c0.2-0.2,0.5-0.4,0.6-0.6c0.7-0.8,1.4-1.6,2.1-2.3 c0.3-0.4,0.7-0.7,1-1.1c0.6-0.7,1.1-1.3,1.7-2c0.3-0.4,0.6-0.6,0.9-0.6c0.1,0,0.3,0,0.4,0.1s0.3,0.2,0.5,0.4c0.6,0.5,1.1,1,1.6,1.6 c0.8,0.8,1.5,1.5,2.3,2.2c0.7,0.6,1.4,1.2,2.2,1.8c0.1,0.1,0.2,0.2,0.3,0.2c0.2,0.1,0.4,0.3,0.7,0.4c0.7,0.4,1.4,0.8,2.1,0.9 c0.2,0,0.4,0.1,0.6,0.1c0.2,0,0.4,0,0.6,0c0.2,0,0.3-0.1,0.4-0.1c0.3-0.1,0.5-0.3,0.6-0.6c0.1-0.2,0.2-0.4,0.2-0.6 c0-0.2,0-0.4-0.1-0.7c-0.1-0.1-0.1-0.2-0.2-0.4c-0.2-0.2-0.3-0.5-0.5-0.7c-0.4-0.4-0.8-0.8-1.2-1.2c-1-1.1-1.9-2.4-2.3-3.9 c0,0,0-0.1,0-0.1c-0.1-0.2-0.1-0.5-0.2-0.9c0.4,0.1,0.6,0.2,0.8,0.3c0,0,0.1,0,0.1,0.1c1.2,0.7,2.4,1.4,3.5,2.2 c1.4,0.9,2.8,1.6,4.3,2.2c1,0.4,2,0.7,3,1c0.5,0.1,1,0.3,1.5,0.4c1,0.2,2.1,0.4,3.2,0.4c0.7,0.1,1.3,0.1,2,0.1 c0.8,0,1.5-0.1,2.3-0.2c1.2-0.1,2.4-0.4,3.5-0.8c0.5-0.2,1-0.4,1.4-0.6c0.5-0.2,0.9-0.5,1.3-0.8c0.6-0.5,1-1.2,1-1.9 c0-0.3-0.1-0.7-0.4-1s-0.6-0.6-1.1-0.8c-0.5-0.2-0.9-0.4-1.4-0.6c-0.3-0.1-0.7-0.3-1-0.4c-0.3-0.1-0.6-0.3-0.9-0.4 c-0.4-0.2-0.8-0.4-1.1-0.6c-1-0.6-1.9-1.3-2.7-2c-0.4-0.3-0.7-0.7-1-1c-0.1-0.1-0.2-0.2-0.2-0.4c0-0.1,0-0.2,0-0.2 c0-0.1,0.1-0.2,0.1-0.3c0.3,0.1,0.6,0.1,0.9,0.2c1.5,0.5,2.9,0.9,4.4,1.2s3,0.6,4.5,0.8c1,0.1,2,0.1,3,0.2c2,0,3.9,0,5.9-0.3 c1-0.1,2-0.3,2.9-0.5c1.3-0.3,2.5-0.6,3.7-1c3.6-1.1,7-2.8,10.3-4.7c1.2-0.7,2.3-1.4,3.5-2.1c0.5-0.3,1-0.6,1.4-0.9 c1.1-0.7,2.2-1.4,3.3-2.2c1.6-1.1,3.1-2.3,4.5-3.8c0.2-0.2,0.4-0.4,0.6-0.6c0.2-0.3,0.5-0.6,0.7-0.9s0.4-0.6,0.5-1 c0-0.1,0.1-0.2,0.1-0.2c0.1-0.2,0.1-0.4,0.1-0.7c0-0.2,0-0.3-0.1-0.5c0-0.2-0.1-0.4-0.2-0.5c-0.1-0.1-0.1-0.2-0.2-0.3 c-0.1-0.2-0.3-0.3-0.5-0.4c-0.1-0.1-0.3-0.2-0.4-0.2c-0.3-0.1-0.7-0.2-1.1-0.3c-0.2-0.1-0.4-0.1-0.7-0.2c-0.8-0.3-1.6-0.5-2.4-0.8 s-1.6-0.5-2.4-0.8c-0.4-0.2-0.9-0.4-1.3-0.6c-0.4-0.2-0.8-0.5-1.2-0.7c0,0,0,0,0,0c0.2-0.2,0.4-0.3,0.6-0.5c0,0,0,0,0,0 c0.6,0.1,1.3,0.2,1.9,0.3c1.9,0.3,3.8,0.4,5.6,0.4c1.9,0,3.8-0.1,5.6-0.3c0.8-0.1,1.6-0.2,2.4-0.4c0.4-0.1,0.8-0.2,1.2-0.3 s0.8-0.2,1.2-0.4c0.9-0.3,1.7-0.8,2.5-1.3c0.6-0.4,1.1-0.8,1.6-1.2c0.5-0.4,1-0.9,1.5-1.4c2-2.1,4-4.2,6-6.4 c0.6-0.7,1.3-1.4,1.9-2.1c0.6-0.7,1.2-1.4,1.9-2.2c0.2-0.3,0.4-0.6,0.6-0.9c0.2-0.3,0.3-0.7,0.3-1c0-0.2,0-0.3,0-0.4 c-0.1-0.4-0.3-0.7-0.6-0.9c-0.3-0.2-0.6-0.3-1-0.3c0,0-0.1,0-0.1,0l0,0c-0.3,0-0.7,0-1,0c-1.1,0-2.2,0.1-3.3,0.1l0,0 c-1.2,0-2.3-0.1-3.5-0.2c-0.1,0-0.2,0-0.3-0.1c-0.1,0-0.3-0.1-0.4-0.1c0,0,0,0,0,0c0.2-0.2,0.3-0.3,0.4-0.3c0.3-0.1,0.7-0.1,1-0.2 c0.8-0.1,1.6-0.2,2.5-0.3c1.6-0.3,3.2-0.6,4.8-1.1c0.8-0.2,1.6-0.4,2.4-0.7c1.1-0.4,2.2-0.8,3.2-1.2c1.9-0.8,3.8-1.8,5.5-3 c0.8-0.6,1.5-1.2,2.3-1.9c0.7-0.7,1.4-1.4,2-2.1c0.4-0.5,0.8-1,1.3-1.5c0.7-0.8,1.3-1.7,1.9-2.5c1.9-2.5,3.7-5.1,5.3-7.8 c1.5-2.4,2.9-4.9,4.2-7.5c0.6-1.2,1.2-2.4,1.7-3.6c0.3-0.6,0.6-1.3,0.8-1.9c0.3-0.6,0.5-1.3,0.7-2c0.1-0.3,0.2-0.7,0.3-1 c0.1-0.4,0.1-0.7,0.1-1.1c0-0.5-0.1-0.9-0.4-1.3c-0.1-0.1-0.2-0.2-0.3-0.3c-0.2-0.2-0.4-0.3-0.7-0.4c-0.3-0.1-0.6-0.1-0.9-0.1 c-0.3,0-0.5,0.1-0.7,0.1c-0.2,0.1-0.5,0.1-0.7,0.2c-1.4,0.4-2.8,0.8-4.2,1.2c-0.2,0.1-0.5,0.1-0.7,0.1c0,0-0.1-0.1-0.1-0.1 c0.2-0.2,0.4-0.4,0.6-0.6c1-0.8,2-1.7,2.9-2.6c1-0.9,1.9-1.8,2.8-2.7c0.7-0.7,1.4-1.5,2-2.3c0.6-0.8,1.2-1.6,1.8-2.4 c0.4-0.5,0.7-1.1,1.1-1.7c0.9-1.5,1.7-3.1,2.3-4.7c0.3-0.8,0.6-1.6,0.9-2.5c0.5-1.7,0.9-3.4,1.2-5.2c0.1-0.7,0.2-1.3,0.3-2 c0.5-4.6,0.3-9.3-0.5-13.9C285.7,142.8,284.2,137.9,282.4,133z M105.4,266.8c-38.6-10.2-71.1-35.9-87-69c-16-33.4-19.3-69-9.2-100.1 c10.9-33.4,36.2-60.5,73.3-78.3c17.8-8.6,37.4-12.9,57.1-12.9c16.9,0,33.8,3.2,49.9,9.5c33.4,13.2,58.8,38.1,71.4,70.1 c5.6,14.3,8.1,28,8.5,40.9c0.8-2.4,1.4-4.8,2.1-7.2c-0.7,2.4-1.3,4.8-2.1,7.2c-0.1,0.2-0.1,0.4-0.2,0.6c-0.3,0.9-0.6,1.7-0.9,2.6 c-0.7,1.8-1.2,3.6-1.7,5.4c-0.6-17.1-4.6-34.3-12.5-50.7C223.7,21.4,147.3-5.5,83.7,25C20.2,55.5-6.6,132,23.9,195.5 c18.9,39.4,55.5,64.6,95.7,70.9c0.9-0.2,1.7-0.4,2.6-0.6c-0.9,0.2-1.7,0.4-2.6,0.6c-2.2,0.5-4.3,0.9-6.5,1.3 c-0.5,0.1-0.9,0.3-1.2,0.5c0,0-0.1,0.1-0.1,0.1C109.6,267.9,107.5,267.4,105.4,266.8z M263.7,145.3c-0.3-0.3-0.5-0.7-0.8-1 c-0.2-0.2-0.5-0.4-0.7-0.6c-0.3-0.2-0.6-0.3-0.8-0.4c-0.2,0-0.4-0.1-0.5-0.1c-0.2,0-0.4,0-0.5,0.1c-0.5,0.1-1,0.5-1.5,1 c-0.5,0.6-0.9,1.2-1.4,1.9c-0.1,0.2-0.2,0.3-0.3,0.5c-1.1,1.7-2.2,3.4-3.3,5c-1.1,1.7-2.2,3.3-3.5,4.9c-0.8,1-1.5,2-2.3,3 c-0.9,1.2-1.8,2.3-2.6,3.5c-0.6,0.9-1.2,1.7-1.7,2.6s-0.9,1.8-1.3,2.8c-0.2,0.5-0.3,1-0.5,1.4c-0.4,1.5-0.7,3-0.9,4.6 c-0.1,1.6-0.3,3.2-0.4,4.8c-0.1,1.5-0.2,2.9-0.3,4.4c-0.1,1.1-0.2,2.2-0.4,3.3c0,0.2-0.1,0.4-0.1,0.6c0,0.2-0.1,0.4-0.1,0.6 c-0.3,1.7-0.9,3.3-1.6,4.8c-0.2,0.4-0.4,0.8-0.6,1.1c-0.1,0.1-0.2,0.3-0.2,0.4c0,0-0.1,0.1-0.1,0.1c-0.1-0.1-0.2-0.1-0.2-0.2 c0-0.1-0.1-0.1-0.1-0.2c0-0.1,0-0.1,0-0.2c0-0.1,0-0.1,0-0.2c0-0.7,0-1.4,0-2.1c-0.1-2.2-0.1-4.4-0.2-6.6c-0.1-2.2-0.1-4.5-0.2-6.7 c0-0.3,0-0.5-0.1-0.8c0-0.2-0.1-0.3-0.2-0.4s-0.1-0.2-0.2-0.3c-0.2-0.2-0.4-0.3-0.7-0.3c-0.3,0-0.5,0-0.8,0.1 c-0.1,0.1-0.2,0.2-0.3,0.3c-0.1,0.1-0.2,0.2-0.3,0.4c-0.2,0.4-0.3,0.8-0.4,1.1c-0.7,2.4-1.4,4.9-2,7.3c-0.2,0.8-0.4,1.6-0.7,2.4 c-0.8,2.9-1.4,5.8-2.2,8.7c-0.3,1.3-0.8,2.5-1.3,3.7c-0.2,0.4-0.4,0.8-0.6,1.2c0,0.1-0.1,0.2-0.1,0.3c0,0,0,0.1,0,0.1 c-0.1,0.1-0.2,0.2-0.4,0.2l0,0c0-0.3,0-0.5,0-0.7c0-1-0.1-1.9-0.1-2.9c0-1-0.1-1.9-0.1-2.9c-0.1-2.1-0.3-4.2-0.4-6.4 c0-0.6,0-1.3,0-1.9c0-1.3,0.1-2.6,0.3-3.9c0.1-0.6,0.2-1.3,0.4-1.9c0.1-0.2,0.1-0.4,0.1-0.6c0-0.5-0.1-0.9-0.3-1.1c0,0,0,0,0,0 c-0.1-0.1-0.2-0.1-0.3-0.2c-0.1-0.1-0.3-0.1-0.4-0.1c0,0,0,0,0,0c-0.3-0.1-0.7,0-0.9,0.3c-0.1,0-0.1,0.1-0.2,0.1 c-0.1,0.2-0.3,0.3-0.4,0.5c-0.1,0.1-0.2,0.3-0.3,0.4c-0.3,0.5-0.6,0.9-0.9,1.4c-0.9,1.3-1.8,2.7-2.7,4.1c-0.3,0.5-0.6,1-0.9,1.5 s-0.6,1-0.9,1.6c-0.6,1.1-1.1,2.1-1.5,3.2c-0.7,1.7-1.2,3.4-1.6,5.1c-0.1,0.6-0.3,1.2-0.4,1.8c-0.3,1.4-0.5,2.9-0.8,4.3 c-0.3,1.4-0.5,2.9-0.8,4.3c-0.1,0.8-0.3,1.6-0.5,2.3c-0.2,1-0.5,1.9-0.8,2.8c-0.4,1.3-0.9,2.6-1.4,3.9c-0.1,0.2-0.2,0.4-0.3,0.5 c0,0,0,0.1-0.1,0.1c0,0.1-0.1,0.1-0.2,0.1s-0.2,0.1-0.3,0.1c-0.1-1.2-0.3-2.3-0.4-3.5c-0.3-2.1-0.6-4.2-1.1-6.2 c-0.5-2-1.1-4.1-1.9-6c-0.3-0.9-0.7-1.7-1.2-2.5c-0.2-0.3-0.4-0.5-0.6-0.7c-0.4-0.5-0.9-0.9-1.4-1.2c-0.5-0.3-1-0.4-1.6-0.5 c-0.2,0-0.4,0-0.7,0c-0.5,0.1-0.9,0.2-1.4,0.5c-0.9,0.4-1.7,0.9-2.5,1.4c-3.8,2.2-7.6,4.3-11.6,6.2c-1.9,0.9-3.7,1.8-5.6,2.7 c-0.8,0.4-1.5,0.8-2.3,1.2c-0.9,0.5-1.8,1-2.7,1.5s-1.8,1-2.6,1.6c-1.2,0.8-2.4,1.6-3.5,2.5c-1.1,0.9-2.1,1.9-3.1,3 c-0.3,0.3-0.6,0.7-0.8,1c-0.4,0.5-0.7,1.1-1,1.6c-0.2,0.4-0.4,0.8-0.5,1.2c-0.5,1.3-0.8,2.8-0.7,4.3c0,0.4,0,0.9,0.1,1.3 c0.1,0.6,0.1,1.2,0.2,1.7c0.2,1.1,0.4,2.1,0.6,3.2c0.1,0.6,0.2,1.1,0.3,1.7c0.1,0.8,0.2,1.7,0.3,2.5c0.1,0.8,0.1,1.7,0.1,2.5 c0,1-0.1,2-0.3,3c-0.1,0.5-0.2,0.9-0.3,1.4c0,0.1-0.1,0.2-0.1,0.3c0,0-0.1,0.1-0.1,0.1c0,0-0.1,0-0.1,0c0,0,0,0-0.1,0 c-0.1-0.2-0.1-0.5-0.2-0.7c-0.1-0.6-0.3-1.3-0.4-1.9c-0.2-0.8-0.5-1.6-0.7-2.4c-0.2-0.5-0.4-1.1-0.6-1.6c-0.2-0.5-0.5-1-0.7-1.5 c-0.2-0.4-0.5-0.8-0.8-1c-0.2-0.2-0.4-0.3-0.7-0.4c-0.1,0-0.2-0.1-0.3-0.1c-0.3,0-0.7,0.1-1,0.3c-0.2,0.2-0.3,0.4-0.5,0.6 c-0.1,0.2-0.1,0.3-0.2,0.5s-0.1,0.3-0.1,0.5c-0.2,0.8-0.3,1.6-0.5,2.5c0,0.2-0.1,0.3-0.1,0.5c-0.1,0.6-0.3,1.3-0.4,1.9 s-0.3,1.2-0.6,1.9c-0.4,1.2-0.9,2.4-1.5,3.6c0,0.1-0.1,0.2-0.2,0.2c-0.1,0.1-0.2,0.3-0.2,0.4c-0.2-0.2-0.3-0.3-0.4-0.5 c0-0.1,0-0.2-0.1-0.3c-0.3-2-0.5-3.9-0.8-5.9c-0.1-1.1-0.2-2.2-0.3-3.2c-0.2-3.2,0.1-6.4,1.1-9.6c0.1-0.2,0.1-0.3,0.1-0.5 c0-0.2,0-0.4,0-0.5c0-0.8-0.6-1.3-1.3-1.2c-0.1,0-0.2,0-0.3,0.1c-0.1,0-0.2,0.1-0.3,0.2c-0.1,0.1-0.3,0.2-0.4,0.3s-0.2,0.3-0.3,0.4 c-0.2,0.3-0.4,0.5-0.5,0.8c-1.1,1.5-2.1,3-3.1,4.5c-0.3,0.5-0.7,1.1-1,1.6c-0.3,0.5-0.5,1-0.8,1.4c-0.3,0.7-0.7,1.4-0.9,2.1 c-0.8,2.2-1.4,4.4-1.7,6.8c-0.1,0.7-0.1,1.4-0.2,2.1c-0.1,1.6-0.1,3.1-0.1,4.7c0,0.2,0,0.5,0,0.7c0,0.6-0.1,1.1-0.1,1.7 c0,0.1,0,0.3-0.1,0.4c0,0.1,0,0.1,0,0.2c0,0,0,0,0,0.1c-0.1,0.3-0.3,0.3-0.6,0.1c-0.2-0.1-0.3-0.2-0.4-0.4c-0.1-0.1-0.2-0.3-0.3-0.4 c-0.3-0.4-0.7-0.8-1-1.3c-0.9-1.3-1.7-2.6-2.6-3.9c-0.1-0.1-0.1-0.2-0.2-0.2c-0.1-0.2-0.2-0.3-0.4-0.4c-0.3-0.3-0.7-0.4-1.1-0.4 c-0.4,0.1-0.7,0.3-0.9,0.7c-0.1,0.2-0.2,0.5-0.3,0.8c0,0.1-0.1,0.2-0.1,0.3c-0.2,0.9-0.4,1.8-0.5,2.7c-0.1,0.7-0.2,1.3-0.2,2 s-0.1,1.3-0.1,2c0,1.3,0.1,2.7,0.4,4c0.1,0.7,0.2,1.3,0.3,2c0,0.2,0,0.3,0,0.4c0,0.5-0.1,0.9-0.4,1.2c-0.1,0.1-0.2,0.1-0.3,0.2 c-0.2,0.1-0.5,0.2-0.8,0.3c-0.1,0-0.3,0.1-0.4,0.1c-1.2,0.3-2.4,0.6-3.6,1c-0.4,0.1-0.8,0.2-1.3,0.3c-42.3-4-81.5-29.3-101.2-70.3 C-3.4,132.1,22.8,57.3,85,27.5c17.4-8.4,35.8-12.3,53.9-12.3c46.6,0,91.4,26.2,112.9,70.9c9.2,19.1,13,39.5,12.2,59.4 C263.8,145.4,263.8,145.3,263.7,145.3z M266.5,136.2c-0.5,2-1,4.1-1.3,6.2C265.5,140.3,266,138.3,266.5,136.2z M264.6,144.9 c0,0.1-0.1,0.2-0.1,0.3c0,0.2-0.2,0.3-0.3,0.6c0.1-0.3,0.3-0.4,0.3-0.6C264.5,145.1,264.6,145,264.6,144.9z M115.9,275.1 c-1.1,0.2-1.5,0-2-1.1c-0.4-0.8-0.7-1.7-0.7-2.6c0,0,0,0,0-0.1c0-0.8,0.2-1.2,1-1.4c0.4-0.2,0.9-0.2,1.3-0.3 c0.6-0.1,1.1-0.2,1.7-0.3c3.2-0.6,6.3-1.3,9.5-2.1c2.8-0.7,5.6-1.4,8.4-2.2c6.3-1.8,12.6-3.8,18.8-6.1c5.1-1.9,10.1-3.9,15-6.1 c5.4-2.4,10.8-5,16-7.8c3.5-1.9,7-3.9,10.5-6c4.2-2.5,8.3-5.1,12.3-7.9c4.8-3.3,9.5-6.8,14-10.5c4.2-3.5,8.3-7.1,12.3-10.9 c7.3-7,13.9-14.6,19.8-22.8c0.9-1.2,1.7-2.5,2.6-3.7c2.2-3.3,4.2-6.6,6.1-10.1c0.3-0.5,0.6-1.1,0.9-1.6c2.1-3.9,3.9-7.9,5.5-12.1 c0.1-0.2,0.1-0.3,0.3-0.6c0.2,0.4,0,0.7,0,0.9c-0.9,3.4-2,6.8-3.4,10.1c-1.8,4.6-4,9-6.4,13.2c-0.3,0.5-0.6,1-0.9,1.6 c-2,3.4-4.2,6.8-6.5,10.1c-0.5,0.6-0.9,1.3-1.4,1.9c-3.8,5.2-8,10.1-12.4,14.8c-3.1,3.2-6.3,6.4-9.6,9.4c-5.4,4.9-11,9.5-16.8,13.8 c-4,3-8.2,5.8-12.4,8.4c-8.4,5.3-17.2,10.1-26.2,14.3c-4.9,2.3-9.8,4.3-14.8,6.3c-3.7,1.4-7.5,2.8-11.4,4c-3.3,1.1-6.7,2.1-10.1,3 c-0.7,0.2-1.5,0.4-2.3,0.6c-2.8,0.7-5.6,1.4-8.5,2c-0.2,0-0.3,0.1-0.5,0.1C122.3,274,119.1,274.6,115.9,275.1z M284.8,160.3 c-0.5,7.2-3,13.6-7.7,19.1c-1.3,1.5-2.7,2.8-4.1,4.2c-1.7,1.6-3.6,3.1-5.4,4.7c-0.2,0.2-0.5,0.5-0.6,0.8c-0.4,0.8-0.1,1.7,0.8,2 c0.4,0.2,0.9,0.2,1.3,0.2c1.2-0.1,2.5-0.3,3.6-0.5c1.2-0.3,2.4-0.7,3.5-1c0.3-0.1,0.5-0.1,0.8-0.2c0.3,0.4,0.2,0.7,0.1,1 c-0.2,0.5-0.4,1.1-0.6,1.6c-3.7,8.4-8.4,16-14.1,23.1c-1.2,1.5-2.5,2.8-4,4c-1.8,1.4-3.7,2.5-5.8,3.3c-5,2-10.2,3-15.5,3.3 c-0.2,0-0.3,0-0.5,0c-0.7,0-1.3,0.1-2,0.1c-0.3,0-0.5,0-0.8,0.1c-0.1,0-0.2,0.1-0.3,0.1c-0.4,0.2-0.8,0.4-0.9,0.9c0,0,0,0.1,0,0.1 c-0.1,0.6,0.1,1,0.5,1.4c0.2,0.2,0.5,0.4,0.8,0.5c0.1,0.1,0.3,0.2,0.4,0.2c2.2,1,4.6,1.7,7,1.8c1.2,0.1,2.5,0,3.7,0 c0.3,0,0.6,0,0.8,0c0.2,0.5-0.1,0.8-0.4,1c-0.8,0.9-1.6,1.9-2.5,2.8c-2,2.2-4.1,4.3-6.1,6.5c-1.9,2-4.1,3.2-6.8,3.7 c-3.3,0.5-6.5,0.8-9.8,0.4c-0.9-0.1-1.7-0.2-2.6-0.3c-1.2-0.2-2.5-0.3-3.7-0.5c-0.2,0-0.4,0-0.6-0.1c-0.3,0-0.6-0.1-0.9-0.1 c-0.3,0-0.6-0.1-0.8-0.1c-0.7,0-1.3,0.1-1.6,0.7c-0.2,0.4-0.2,0.8-0.1,1.1c0.1,0.2,0.2,0.5,0.3,0.7c0.1,0.1,0.2,0.3,0.3,0.4 c0.4,0.6,1,1.1,1.6,1.5c0.2,0.1,0.4,0.3,0.6,0.4c1.6,1.1,3.2,1.9,5,2.5c1.2,0.4,2.4,0.7,3.5,1.1c0.2,0.1,0.4,0.1,0.6,0.2 c0.7,0.3,0.9,0.6,0.3,1.2c-0.7,0.8-1.5,1.6-2.4,2.2c-2.8,2.3-5.8,4.3-8.9,6.1c-3,1.8-6.1,3.4-9.4,4.7c-6.2,2.3-12.5,2.8-19.1,1.8 c-1.5-0.2-2.9-0.6-4.3-1.1c-1.2-0.4-2.4-0.8-3.6-1.1c-0.4-0.1-0.7-0.2-1.1-0.3c-0.1,0-0.1,0-0.2,0c-0.3-0.1-0.5-0.1-0.8-0.1 c-0.7,0-1.2,0.3-1.5,0.9c-0.1,0.3-0.2,0.5-0.2,0.9c0.1,0.7,0.4,1.2,0.7,1.8c0,0,0,0,0,0c2,3,4.7,5.3,8,6.7c0.4,0.2,0.8,0.4,1.3,0.5 c0.3,0.1,0.5,0.3,0.5,0.7c-0.3,0.1-0.6,0.3-0.9,0.4c-2,0.7-4.1,1-6.2,0.9c-4.3-0.2-8.3-1.5-11.9-3.9c-1.3-0.8-2.6-1.6-3.9-2.4 c-0.2-0.1-0.3-0.2-0.5-0.3c-0.4-0.2-0.7-0.3-1.1-0.4c-0.9-0.2-1.6,0.1-2,0.8c-0.1,0.2-0.2,0.3-0.2,0.5c-0.1,0.6-0.2,1.2-0.1,1.9 c0.1,1,0.5,2,0.9,3c0.1,0.2,0.2,0.4,0.1,0.6c-0.1-0.1-0.3-0.1-0.4-0.3c-1.1-1.1-2.3-2.2-3.4-3.3c-0.5-0.4-0.9-0.9-1.4-1.3 c-0.5-0.4-1-0.6-1.5-0.7c-0.2,0-0.4,0-0.6,0c-0.4,0.1-0.8,0.3-1.2,0.6c-0.9,0.7-1.6,1.6-2.4,2.5c-0.3,0.3-0.6,0.7-0.9,1.1 c-0.2,0.2-0.4,0.5-0.7,0.3c-0.2-0.1-0.3-0.4-0.4-0.6c-0.1-0.1-0.1-0.3-0.1-0.4c-0.1-1.1-0.4-2.2-0.8-3.2c-0.1-0.3-0.2-0.6-0.4-0.9 c-0.1-0.1-0.1-0.3-0.2-0.4c-0.3-0.7-0.2-0.9,0.5-1.2c0.4-0.1,0.8-0.3,1.2-0.4c1.6-0.5,3.2-1,4.8-1.5c3-1,6-2,9-3.2 c4.6-1.7,9.1-3.6,13.6-5.5c1.1-0.5,2.3-1,3.4-1.5c6.1-2.9,12.1-6,18-9.3c4-2.3,8-4.8,11.9-7.3c6.4-4.2,12.5-8.7,18.5-13.6 c4.9-4,9.6-8.3,14.1-12.8c2.1-2.1,4.2-4.4,6.3-6.6c2.8-3.1,5.5-6.3,8-9.6c1.1-1.4,2.2-2.9,3.2-4.3c1-1.5,2.1-3,3.1-4.5 c1.9-2.8,3.6-5.7,5.2-8.7c3-5.4,5.5-11.1,7.5-17c2.5-7.6,4.1-15.3,4.2-23.3c0-0.5,0-1,0-1.5c0-0.3,0-0.6-0.1-0.9 c-0.1-0.6-0.6-0.9-1.1-0.9c-0.2,0-0.4,0.1-0.5,0.1c-0.3,0.1-0.5,0.4-0.6,0.7c-0.1,0.2-0.1,0.3-0.1,0.5c-0.9,5.9-2.5,11.6-4.6,17.1 c-0.7,1.8-1.4,3.6-2.2,5.4c-0.7,1.6-1.4,3.2-2.2,4.8c-1,1.9-2,3.9-3.1,5.7c-3.6,6.4-7.8,12.5-12.4,18.3c-3.7,4.7-7.7,9.1-11.9,13.3 c-2.5,2.5-5,4.8-7.6,7.2c-5.3,4.9-10.9,9.3-16.7,13.5c-3.7,2.7-7.4,5.3-11.3,7.7c-3.4,2.1-6.9,4.2-10.4,6.2 c-6.5,3.7-13.1,7-19.9,10.1c-9.9,4.5-20,8.3-30.4,11.4c-0.1,0-0.2,0.1-0.3,0.1c-0.7,0.3-1.2,0-1.4-0.7c-0.7-3-1.3-6.1-0.7-9.2 c0-0.2,0.1-0.5,0.2-0.8c0.2,0.2,0.4,0.4,0.5,0.5c0.7,0.9,1.3,1.9,2,2.8c0.7,0.9,1.5,1.7,2.2,2.5c1,1,2.2,0.8,2.9-0.5 c0.4-0.8,0.6-1.7,0.8-2.5c0.2-0.8,0.2-1.7,0.2-2.5c0.1-2.1,0.1-4.3,0.2-6.4c0.3-4.2,1.7-8,4-11.5c0-0.1,0.1-0.1,0.1-0.2 c0.1-0.1,0.3-0.3,0.4-0.2c0.1,0.1,0.2,0.3,0.3,0.4c0,0.1,0,0.2,0,0.3c-0.2,2.7,0,5.3,0.3,8c0.3,2.5,0.6,5,0.9,7.6 c0.1,0.4,0.1,0.9,0.3,1.3c0.4,1.1,1.5,1.5,2.4,0.8c0.4-0.3,0.8-0.7,1.1-1.1c0.8-1.1,1.4-2.3,2-3.5c0.9-2,1.5-4,1.9-6.1 c0.1-0.4,0.1-0.9,0.5-1.2c0.3,0.1,0.3,0.4,0.4,0.7c0.6,1.9,1,3.8,1.3,5.8c0.1,0.6,0.2,1.2,0.3,1.9c0,0.2,0.1,0.4,0.1,0.6 c0.2,0.6,0.5,1.1,1.1,1.3c0.7,0.2,1.3-0.1,1.7-0.6c0.4-0.5,0.8-1.1,1-1.7c0.3-0.6,0.5-1.2,0.6-1.9c1.1-3.9,1-7.8,0.2-11.7 c-0.3-1.3-0.6-2.6-0.8-4c-0.1-0.8-0.2-1.5-0.3-2.3c-0.3-2.5,0.5-4.8,2.1-6.7c1.6-2,3.6-3.6,5.7-5.1c3.8-2.6,8-4.6,12.1-6.6 c4.4-2.1,8.7-4.4,12.9-6.9c0.8-0.5,1.6-1,2.5-1.4c1.1-0.6,1.7-0.4,2.4,0.5c0.5,0.8,1,1.7,1.3,2.6c1.4,3.5,2.2,7.2,2.7,10.9 c0.3,2.4,0.5,4.8,0.7,7.2c0,0.4,0.1,0.8,0.2,1.1c0.3,1,1.4,1.3,2.2,0.6c0.3-0.3,0.6-0.6,0.8-0.9c0.5-0.9,1-1.7,1.4-2.6 c1.6-3.6,2.8-7.3,3.5-11.2c0.5-2.9,1-5.8,1.6-8.6c0.9-4.7,2.8-8.9,5.4-12.9c0.1-0.2,0.3-0.4,0.6-0.7c0.1,0.4,0.1,0.6,0.1,0.8 c0.2,3,0.3,5.9,0.4,8.9c0.1,2.6,0.2,5.3,0.2,7.9c0,0.5,0,1,0.1,1.4c0.3,1.4,1.5,1.9,2.6,1c0.6-0.5,1.1-1.2,1.6-1.9 c1.3-2,2.2-4.3,2.8-6.6c0.9-3.4,1.7-6.7,2.6-10.1c0.1-0.5,0.2-1,0.4-1.5c0.1-0.2,0.2-0.4,0.3-0.7c0.3,0.3,0.3,0.6,0.3,0.8 c0,2.8,0.1,5.5,0.1,8.3c0,0.8,0,1.5,0,2.3c0,0.3,0,0.6,0.1,0.9c0.3,1.1,1.3,1.5,2.3,0.9c0.6-0.4,1.1-0.9,1.5-1.5 c1.8-2.6,3-5.4,3.6-8.5c0.6-2.8,0.8-5.6,0.9-8.4c0.1-1.4,0.2-2.9,0.3-4.3c0.2-4.6,1.7-8.7,4.5-12.4c1.7-2.2,3.3-4.4,5-6.7 c2.3-3,4.2-6.3,6.3-9.5c0.3-0.5,0.6-1,1-1.4c0.2-0.2,0.4-0.5,0.7-0.7c0.2,0.2,0.4,0.4,0.6,0.6c0.4,0.6,0.9,1.2,1.3,1.7 c0.3,0.4,0.6,0.6,0.9,0.7c0.7,0.3,1.4,0.1,2-0.7c0.3-0.4,0.6-0.9,0.8-1.4c0-0.1,0.1-0.2,0.1-0.3c0.3-0.9,0.6-1.9,0.8-2.8 c0.3-1.4,0.5-2.9,0.8-4.3c0.3-1.7,0.8-3.4,1.3-5c0.3-0.8,0.5-1.5,0.8-2.3c0.7-1.9,1.3-3.8,1.9-5.7c0.5-1.6,0.9-3.2,1.4-4.8 c0.1-0.2,0.1-0.4,0.2-0.6c0.1-0.2,0.3-0.3,0.5-0.4c0.1,0,0.3,0.2,0.4,0.3c0.4,0.8,0.8,1.7,1.1,2.5c2.6,6,5.1,12,6.9,18.2 C284.4,147.6,285.2,153.9,284.8,160.3z" fill="#fffefe"/></g></svg>