<svg id="svg" version="1.1" width="700" height="700" xmlns="http://www.w3.org/2000/svg">
  <!-- Cream rounded background -->
  <rect x="0" y="0" width="604" height="688" rx="60" ry="60" fill="#F5E6D3"/>

  <!-- Original artwork -->
  <g transform="translate(100,100) scale(0.7)">
    
  <path d="M538.367 67.941 C 537.195 68.440,533.323 71.572,529.765 74.901 C 513.214 90.384,478.020 109.450,446.821 119.836 C 420.309 128.663,394.116 135.105,370.561 138.592 C 355.956 140.754,326.016 141.495,310.000 140.092 C 283.582 137.776,267.370 133.182,239.000 119.973 C 206.217 104.710,197.499 102.419,175.550 103.304 C 139.828 104.745,108.045 117.503,78.257 142.359 C 58.950 158.469,41.692 182.086,33.782 203.224 C 29.974 213.400,29.329 224.797,32.304 229.340 C 37.078 236.630,46.892 238.043,52.119 232.193 C 53.595 230.540,55.557 226.559,56.478 223.344 C 60.393 209.685,70.867 194.014,86.451 178.500 C 105.870 159.167,127.207 147.298,153.634 141.128 C 173.185 136.563,188.719 136.653,201.340 141.403 C 204.742 142.684,215.845 147.576,226.013 152.276 C 243.779 160.486,259.336 166.290,271.000 169.059 C 274.025 169.777,276.816 170.621,277.202 170.935 C 277.589 171.248,277.506 188.829,277.018 210.002 C 276.530 231.176,275.867 264.250,275.544 283.500 C 274.686 334.609,273.109 405.674,272.526 419.500 C 272.248 426.100,271.769 442.075,271.462 455.000 C 269.713 528.731,268.184 558.394,265.458 571.500 C 263.216 582.278,263.529 586.866,266.865 592.126 C 270.252 597.467,274.941 600.000,281.441 600.000 C 299.434 600.000,309.951 576.342,314.113 526.500 C 314.772 518.614,315.328 491.372,315.386 464.119 L 315.491 415.738 322.353 423.119 C 353.959 457.113,374.793 483.620,395.749 516.500 C 426.611 564.921,443.348 598.553,456.161 637.888 C 460.560 651.395,462.754 654.488,468.733 655.610 C 473.283 656.463,478.359 654.060,481.080 649.763 C 483.006 646.723,483.112 645.441,482.632 631.000 C 482.053 613.617,480.128 602.893,474.399 585.142 C 459.883 540.161,402.874 457.024,345.582 397.285 L 333.867 385.071 342.848 371.785 C 347.788 364.478,354.035 355.553,356.731 351.950 C 359.427 348.348,361.899 344.748,362.224 343.950 C 363.637 340.484,389.175 312.931,420.575 280.996 C 488.089 212.331,508.826 188.696,532.613 153.305 C 542.876 138.035,555.124 113.842,556.951 105.229 C 558.505 97.909,557.943 88.722,555.792 86.265 C 554.941 85.294,554.027 82.096,553.761 79.157 C 553.379 74.954,552.649 73.187,550.338 70.877 C 547.173 67.711,541.930 66.425,538.367 67.941 M510.103 135.770 C 492.773 161.073,469.475 186.871,425.813 229.108 C 386.253 267.377,361.132 292.553,349.091 306.000 C 338.963 317.310,320.556 341.100,318.142 346.000 C 317.464 347.375,316.040 349.625,314.977 351.000 L 313.044 353.500 313.022 342.456 C 312.995 328.926,311.359 281.582,309.982 254.500 C 307.980 215.102,305.972 181.442,305.428 178.156 L 304.874 174.813 322.187 175.518 C 350.432 176.670,374.394 174.239,407.165 166.898 C 448.543 157.629,478.048 147.331,505.500 132.574 C 511.000 129.618,515.637 127.154,515.805 127.100 C 515.973 127.045,513.407 130.946,510.103 135.770 M180.862 200.513 C 177.112 202.550,172.229 210.393,171.309 215.852 C 170.390 221.316,170.390 221.227,171.469 284.500 C 172.084 320.551,171.934 346.185,170.902 381.500 C 169.184 440.323,169.143 521.987,170.823 542.000 C 174.240 582.715,176.337 601.722,177.752 604.794 C 179.644 608.901,183.575 611.000,189.373 611.000 C 193.035 611.000,194.404 610.442,196.923 607.923 C 198.616 606.230,200.226 603.868,200.501 602.673 C 201.237 599.473,203.759 556.598,205.089 524.695 C 207.390 469.477,204.339 331.154,199.015 249.311 C 197.267 222.441,197.213 218.735,198.525 215.594 C 199.336 213.652,200.000 211.330,200.000 210.433 C 200.000 207.299,196.707 201.900,193.915 200.456 C 190.366 198.621,184.297 198.647,180.862 200.513 " 
        stroke="none" fill="black" fill-rule="evenodd"/>
    </g>g>
</svg>