<svg xmlns="http://www.w3.org/2000/svg" viewBox="0 0 864 864" enable-background="new 0 0 864 864">
  <!-- White circular background -->
  <circle cx="432" cy="432" r="532" fill="white" />

  <style>.ls0{fill:#000}</style>
  <g class="ls0">
    <g>
      <path d="M433,144.3c84.2,0,167.9,10.8,248.6,32.2l5,1.3l0,0c16.1,4.4,32.1,9.2,48,14.3c-2.5,18.1-5.7,36.2-9.5,54.1 
        c0,0.1,0,0.2-0.1,0.3c-3.3-1.2-6.7-2.3-9.9-3.4c-7.1-2.4-14.3-4.7-21.4-6.8c0.3-1.3,0.6-2.7,0.8-4L698,215l-17.1-4.7 
        c-8.9-2.4-17.8-4.7-26.3-6.8c-60.5-14.7-123-23.3-185.9-25.7l-19.7-0.7v19.7v20.7v452.6v9.4l7.5,5.7c0.9,0.7,1.9,1.4,2.8,2.1 
        c-8.6,7.2-17.4,14.3-26.4,21.2c-8.9-6.9-17.8-13.9-26.4-21.1c0.3-0.2,0.6-0.4,0.9-0.7l7.5-5.7v-9.5v-454v-20.7v-19.8l-19.7,0.8 
        c-61.8,2.4-123.2,10.9-182.7,25.3c-9.1,2.2-18.4,4.6-27.5,7.1l-17.1,4.7l3.5,17.4c0.3,1.3,0.5,2.7,0.8,4 
        c-6.8,2.1-13.6,4.2-20.3,6.4c-3.7,1.2-7.4,2.5-11.1,3.7c0-0.1-0.1-0.2-0.1-0.4c-3.8-17.7-6.9-35.8-9.5-54 
        C228.3,160.4,329.8,144.3,433,144.3 M433,125.3c-108.4,0-217.3,17.7-321.2,53.4c-0.5,0.2-0.9,0.3-1.4,0.5c0.5,3.9,1,7.8,1.5,11.6 
        c2.7,20,6.1,39.8,10.3,59.4c1.5,7.2,3.1,14.4,4.9,21.6c10.2-3.8,20.5-7.4,30.8-10.9c12.2-4,24.4-7.8,36.7-11.2 
        c-1.6-7-3.1-14-4.6-21c8.9-2.5,17.9-4.8,26.9-6.9c58.4-14.1,118.2-22.4,179-24.8v20.7c0,5.6,0,446.2,0,454c-6.6,5-13.2,9.8-20,14.5 
        c0.2,0.2,0.5,0.5,0.8,0.7c4.5,4,9,7.9,13.5,11.8c13.8,11.7,28,23,42.6,33.8c19.3-14.3,38-29.4,56-45.3c0.3-0.3,0.7-0.6,1-0.9 
        c-7.4-5.2-14.7-10.5-21.9-16c0-4.3,0-449.4,0-452.6v-20.7c61.9,2.3,122.7,10.7,182.1,25.2c8.6,2.1,17.2,4.3,25.8,6.7 
        c-1.4,7-2.9,14-4.6,21c12.7,3.6,25.3,7.4,37.8,11.6c10,3.3,19.9,6.8,29.7,10.5c1.7-7.2,3.4-14.3,4.9-21.6 
        c3.9-18.6,7.2-37.3,9.8-56.3c0.7-4.9,1.3-9.8,1.9-14.6c-21-7.3-42.3-13.8-63.9-19.7c-1.7-0.5-3.4-0.9-5-1.4 
        C604.1,136.3,518.7,125.3,433,125.3L433,125.3z"/>
    </g>
  </g>
</svg>
